<svg id="Layer_1" height="512" viewBox="0 0 512 512" width="512" xmlns="http://www.w3.org/2000/svg" data-name="Layer 1"><path d="m102 201v71h46.38l-23.8-23.8a5 5 0 0 1 0-7.071l51.383-51.383a5 5 0 0 1 7.07 0l51.383 51.383a5 5 0 0 1 0 7.071l-23.8 23.8h40.384v-157h-148.978a35.054 35.054 0 0 0 -35.022 35v46h30a5 5 0 0 1 5 5z"/><path d="m280.582 248.2a5 5 0 0 1 0-7.071l51.383-51.383a5 5 0 0 1 7.07 0l51.383 51.383a5 5 0 0 1 0 7.071l-23.8 23.8h43.382v-71a5 5 0 0 1 5-5h36v-46a35.054 35.054 0 0 0 -35.022-35h-154.978v157h43.38z"/><path d="m135.188 244.667 27.333 27.333h33.958l27.333-27.333-44.312-44.312z"/><path d="m291.188 244.667 27.333 27.333h33.958l27.333-27.333-44.312-44.312z"/><path d="m92 277v-71h-62v137h141v-61h-74a5 5 0 0 1 -5-5z"/><path d="m420 277a5 5 0 0 1 -5 5h-74v61h140v-137h-61z"/><path d="m427 353h44v44h-44z"/><path d="m47 353h44v44h-44z"/><path d="m181 282h150v61h-150z"/></svg>