<?xml version="1.0" encoding="utf-8"?>
<svg id="master-artboard" viewBox="0 0 336 235.2" version="1.1" xmlns="http://www.w3.org/2000/svg" x="0px" y="0px" style="enable-background:new 0 0 336 235.2;" width="336px" height="235.1999969482422px" xmlns:xlink="http://www.w3.org/1999/xlink">

<g transform="matrix(0.9999999999999999, 0, 0, 0.9999999999999999, -2.842170943040401e-14, 0)">
		<g>
			<defs>
				<path d="M 0 235.199997 L 0 0 L 336 0 L 336 235.199997" id="SVGID_1_"/>
			</defs>
			<clipPath id="SVGID_2_">
				<use style="overflow:visible;" xlink:href="#SVGID_1_"/>
			</clipPath>
			<g class="st0" style="clip-path: url('#SVGID_2_');">
				<path class="st1" d="M0,235.2h336H0z" style="fill: rgb(255, 255, 255);"/>
			</g>
			<g class="st0" style="clip-path: url('#SVGID_2_');">
				<path d="M 0 229.199997 H 336 V 235.199997 H 0 V 229.199997 Z" class="st1" style="fill: rgb(255, 255, 255);"/>
			</g>
			<g class="st0" style="clip-path: url('#SVGID_2_');">
				<path d="M 0 223.100006 H 336 V 229.100006 H 0 V 223.100006 Z" class="st2" style="fill: rgb(254, 254, 255);"/>
			</g>
			<g class="st0" style="clip-path: url('#SVGID_2_');">
				<path d="M 0 217.100006 H 336 V 223.100006 H 0 V 217.100006 Z" class="st3" style="fill: rgb(253, 254, 254);"/>
			</g>
			<g class="st0" style="clip-path: url('#SVGID_2_');">
				<path d="M 0 211.100006 H 336 V 217.100006 H 0 V 211.100006 Z" class="st4" style="fill: rgb(252, 253, 254);"/>
			</g>
			<g class="st0" style="clip-path: url('#SVGID_2_');">
				<path d="M 0 205 H 336 V 211 H 0 V 205 Z" class="st5" style="fill: rgb(251, 253, 253);"/>
			</g>
			<g class="st0" style="clip-path: url('#SVGID_2_');">
				<path d="M 0 199 H 336 V 205 H 0 V 199 Z" class="st6" style="fill: rgb(250, 252, 253);"/>
			</g>
			<g class="st0" style="clip-path: url('#SVGID_2_');">
				<path d="M 0 193 H 336 V 199 H 0 V 193 Z" class="st7" style="fill: rgb(249, 252, 253);"/>
			</g>
			<g class="st0" style="clip-path: url('#SVGID_2_');">
				<path d="M 0 186.899994 H 336 V 192.899994 H 0 V 186.899994 Z" class="st8" style="fill: rgb(248, 251, 252);"/>
			</g>
			<g class="st0" style="clip-path: url('#SVGID_2_');">
				<path d="M 0 180.899994 H 336 V 186.899994 H 0 V 180.899994 Z" class="st9" style="fill: rgb(247, 251, 252);"/>
			</g>
			<g class="st0" style="clip-path: url('#SVGID_2_');">
				<path d="M 0 174.899994 H 336 V 180.899994 H 0 V 174.899994 Z" class="st10" style="fill: rgb(246, 250, 251);"/>
			</g>
			<g class="st0" style="clip-path: url('#SVGID_2_');">
				<path d="M 0 168.899994 H 336 V 174.899994 H 0 V 168.899994 Z" class="st11" style="fill: rgb(245, 250, 251);"/>
			</g>
			<g class="st0" style="clip-path: url('#SVGID_2_');">
				<path d="M 0 162.800003 H 336 V 168.800003 H 0 V 162.800003 Z" class="st12" style="fill: rgb(244, 249, 251);"/>
			</g>
			<g class="st0" style="clip-path: url('#SVGID_2_');">
				<path d="M 0 156.800003 H 336 V 162.800003 H 0 V 156.800003 Z" class="st13" style="fill: rgb(243, 249, 250);"/>
			</g>
			<g class="st0" style="clip-path: url('#SVGID_2_');">
				<path d="M 0 150.800003 H 336 V 156.800003 H 0 V 150.800003 Z" class="st14" style="fill: rgb(242, 248, 250);"/>
			</g>
			<g class="st0" style="clip-path: url('#SVGID_2_');">
				<path d="M 0 144.699997 H 336 V 150.699997 H 0 V 144.699997 Z" class="st15" style="fill: rgb(241, 248, 249);"/>
			</g>
			<g class="st0" style="clip-path: url('#SVGID_2_');">
				<path d="M 0 138.699997 H 336 V 144.699997 H 0 V 138.699997 Z" class="st16" style="fill: rgb(240, 247, 249);"/>
			</g>
			<g class="st0" style="clip-path: url('#SVGID_2_');">
				<path d="M 0 132.699997 H 336 V 138.699997 H 0 V 132.699997 Z" class="st17" style="fill: rgb(239, 247, 249);"/>
			</g>
			<g class="st0" style="clip-path: url('#SVGID_2_');">
				<path d="M 0 126.599998 H 336 V 132.599998 H 0 V 126.599998 Z" class="st18" style="fill: rgb(238, 246, 248);"/>
			</g>
			<g class="st0" style="clip-path: url('#SVGID_2_');">
				<path d="M 0 120.599998 H 336 V 126.599998 H 0 V 120.599998 Z" class="st19" style="fill: rgb(237, 246, 248);"/>
			</g>
			<g class="st0" style="clip-path: url('#SVGID_2_');">
				<path d="M 0 114.599998 H 336 V 120.599998 H 0 V 114.599998 Z" class="st20" style="fill: rgb(236, 245, 248);"/>
			</g>
			<g class="st0" style="clip-path: url('#SVGID_2_');">
				<path d="M 0 108.5 H 336 V 114.5 H 0 V 108.5 Z" class="st21" style="fill: rgb(234, 244, 247);"/>
			</g>
			<g class="st0" style="clip-path: url('#SVGID_2_');">
				<path d="M 0 102.5 H 336 V 108.5 H 0 V 102.5 Z" class="st22" style="fill: rgb(233, 244, 247);"/>
			</g>
			<g class="st0" style="clip-path: url('#SVGID_2_');">
				<path d="M 0 96.5 H 336 V 102.5 H 0 V 96.5 Z" class="st23" style="fill: rgb(232, 243, 246);"/>
			</g>
			<g class="st0" style="clip-path: url('#SVGID_2_');">
				<path d="M 0 90.5 H 336 V 96.5 H 0 V 90.5 Z" class="st24" style="fill: rgb(231, 243, 246);"/>
			</g>
			<g class="st0" style="clip-path: url('#SVGID_2_');">
				<path d="M 0 84.400002 H 336 V 90.400002 H 0 V 84.400002 Z" class="st25" style="fill: rgb(230, 242, 246);"/>
			</g>
			<g class="st0" style="clip-path: url('#SVGID_2_');">
				<path d="M 0 78.400002 H 336 V 84.400002 H 0 V 78.400002 Z" class="st26" style="fill: rgb(229, 242, 245);"/>
			</g>
			<g class="st0" style="clip-path: url('#SVGID_2_');">
				<path d="M 0 72.400002 H 336 V 78.400002 H 0 V 72.400002 Z" class="st27" style="fill: rgb(228, 241, 245);"/>
			</g>
			<g class="st0" style="clip-path: url('#SVGID_2_');">
				<path d="M 0 66.300003 H 336 V 72.300003 H 0 V 66.300003 Z" class="st28" style="fill: rgb(227, 241, 244);"/>
			</g>
			<g class="st0" style="clip-path: url('#SVGID_2_');">
				<path d="M 0 60.299999 H 336 V 66.299999 H 0 V 60.299999 Z" class="st29" style="fill: rgb(226, 240, 244);"/>
			</g>
			<g class="st0" style="clip-path: url('#SVGID_2_');">
				<path d="M 0 54.299999 H 336 V 60.299999 H 0 V 54.299999 Z" class="st30" style="fill: rgb(225, 240, 244);"/>
			</g>
			<g class="st0" style="clip-path: url('#SVGID_2_');">
				<path d="M 0 48.200001 H 336 V 54.200001 H 0 V 48.200001 Z" class="st31" style="fill: rgb(224, 239, 243);"/>
			</g>
			<g class="st0" style="clip-path: url('#SVGID_2_');">
				<path d="M 0 42.200001 H 336 V 48.200001 H 0 V 42.200001 Z" class="st32" style="fill: rgb(223, 239, 243);"/>
			</g>
			<g class="st0" style="clip-path: url('#SVGID_2_');">
				<path d="M 0 36.200001 H 336 V 42.200001 H 0 V 36.200001 Z" class="st33" style="fill: rgb(222, 238, 242);"/>
			</g>
			<g class="st0" style="clip-path: url('#SVGID_2_');">
				<path d="M 0 30.200001 H 336 V 36.200001 H 0 V 30.200001 Z" class="st34" style="fill: rgb(221, 238, 242);"/>
			</g>
			<g class="st0" style="clip-path: url('#SVGID_2_');">
				<path d="M 0 24.1 H 336 V 30.1 H 0 V 24.1 Z" class="st35" style="fill: rgb(220, 237, 242);"/>
			</g>
			<g class="st0" style="clip-path: url('#SVGID_2_');">
				<path d="M 0 18.1 H 336 V 24.1 H 0 V 18.1 Z" class="st36" style="fill: rgb(219, 237, 241);"/>
			</g>
			<g class="st0" style="clip-path: url('#SVGID_2_');">
				<path d="M 0 12.1 H 336 V 18.1 H 0 V 12.1 Z" class="st37" style="fill: rgb(218, 236, 241);"/>
			</g>
			<g class="st0" style="clip-path: url('#SVGID_2_');">
				<path d="M 0 6 H 336 V 12 H 0 V 6 Z" class="st38" style="fill: rgb(217, 236, 240);"/>
			</g>
			<g class="st0" style="clip-path: url('#SVGID_2_');">
				<path d="M 0 0 H 336 V 6 H 0 V 0 Z" class="st39" style="fill: rgb(216, 235, 240);"/>
			</g>
			<g class="st0" style="clip-path: url('#SVGID_2_');">
				<path class="st39" d="M336,0H0H336z" style="fill: rgb(216, 235, 240);"/>
			</g>
		</g>
	</g><g transform="matrix(0.9999999999999999, 0, 0, 0.9999999999999999, -8.526512829121202e-14, 0)">
			<path d="M 309.29998779296875 108.80000305175781 L 309.29998779296875 145.1999969482422 L 281.1000061035156 145.1999969482422 L 281.1000061035156 107.80000305175781 L 267.3999938964844 95.80000305175781 L 254.1999969482422 107.5999984741211 L 254.1999969482422 138.1999969482422 L 252.1999969482422 138.1999969482422 L 252.1999969482422 122 L 235 122 L 235 137.1999969482422 L 226.6999969482422 137.1999969482422 L 226.6999969482422 89.9000015258789 L 187.8000030517578 89.9000015258789 L 187.8000030517578 138.1999969482422 L 173.39999389648438 138.1999969482422 L 173.39999389648438 101.80000305175781 L 155.89999389648438 101.80000305175781 L 155.89999389648438 138.1999969482422 L 138.6999969482422 138.1999969482422 L 138.6999969482422 130.1999969482422 L 138.6999969482422 109.30000305175781 L 130.6999969482422 109.30000305175781 L 130.6999969482422 105.30000305175781 L 126.5 105.30000305175781 L 126.5 101.30000305175781 L 122.30000305175781 101.30000305175781 L 122.30000305175781 93.19999694824219 L 121 93.19999694824219 L 121 101.30000305175781 L 116.80000305175781 101.30000305175781 L 116.80000305175781 105.30000305175781 L 112.5999984741211 105.30000305175781 L 112.5999984741211 109.30000305175781 L 105.80000305175781 109.30000305175781 L 105.80000305175781 130.1999969482422 L 81.80000305175781 130.1999969482422 L 81.80000305175781 118.4000015258789 L 57.900001525878906 118.4000015258789 L 57.900001525878906 138.1999969482422 L 30.200000762939453 138.1999969482422 L 30.200000762939453 111.5999984741211 L 14.199999809265137 98.5999984741211 L 0 110.80000305175781 L 0 193.10000610351562 L 336 193.10000610351562 L 336 108.80000305175781 Z" class="st40" style="fill: rgb(181, 193, 201);"/>
		</g><g transform="matrix(0.9999999999999999, 0, 0, 0.9999999999999999, -8.526512829121202e-14, 0)">
			<path d="M 45 130.199997 H 88.200001 V 193.099998 H 45 V 130.199997 Z" class="st41" style="fill: rgb(85, 141, 151);"/>
		</g><g transform="matrix(0.9999999999999999, 0, 0, 0.9999999999999999, -8.526512829121202e-14, 0)">
			<g>
				<path d="M 50.299999 135.199997 H 53.999999 V 140.599997 H 50.299999 V 135.199997 Z" class="st1" style="fill: rgb(255, 255, 255);"/>
			</g>
		</g><g transform="matrix(0.9999999999999999, 0, 0, 0.9999999999999999, -1.1368683772161603e-13, 0)" style="opacity: 0.6;">
				<path d="M 57.599998 135.199997 H 61.299999 V 140.599997 H 57.599998 V 135.199997 Z" class="st1" style="fill: rgb(255, 255, 255);"/>
			</g><g transform="matrix(0.9999999999999999, 0, 0, 0.9999999999999999, -1.1368683772161603e-13, 0)">
				<path d="M 64.900002 135.199997 H 68.600002 V 140.599997 H 64.900002 V 135.199997 Z" class="st43" style="fill: rgb(255, 202, 110);"/>
			</g><g transform="matrix(0.9999999999999999, 0, 0, 0.9999999999999999, -1.1368683772161603e-13, 0)" style="opacity: 0.6;">
				<path d="M 72.199997 135.199997 H 75.899997 V 140.599997 H 72.199997 V 135.199997 Z" class="st1" style="fill: rgb(255, 255, 255);"/>
			</g><g transform="matrix(0.9999999999999999, 0, 0, 0.9999999999999999, -1.1368683772161603e-13, 0)">
				<path d="M 79.599998 135.199997 H 83.299999 V 140.599997 H 79.599998 V 135.199997 Z" class="st1" style="fill: rgb(255, 255, 255);"/>
			</g><g transform="matrix(0.9999999999999999, 0, 0, 0.9999999999999999, -1.1368683772161603e-13, 0)" style="opacity: 0.6;">
				<path d="M 50.299999 144.300003 H 53.999999 V 149.700003 H 50.299999 V 144.300003 Z" class="st1" style="fill: rgb(255, 255, 255);"/>
			</g><g transform="matrix(0.9999999999999999, 0, 0, 0.9999999999999999, -1.1368683772161603e-13, 0)" style="opacity: 0.6;">
				<path d="M 57.599998 144.300003 H 61.299999 V 149.700003 H 57.599998 V 144.300003 Z" class="st1" style="fill: rgb(255, 255, 255);"/>
			</g><g transform="matrix(0.9999999999999999, 0, 0, 0.9999999999999999, -1.1368683772161603e-13, 0)">
				<path d="M 64.900002 144.300003 H 68.600002 V 149.700003 H 64.900002 V 144.300003 Z" class="st1" style="fill: rgb(255, 255, 255);"/>
			</g><g transform="matrix(0.9999999999999999, 0, 0, 0.9999999999999999, -1.1368683772161603e-13, 0)" style="opacity: 0.6;">
				<path d="M 72.199997 144.300003 H 75.899997 V 149.700003 H 72.199997 V 144.300003 Z" class="st1" style="fill: rgb(255, 255, 255);"/>
			</g><g transform="matrix(0.9999999999999999, 0, 0, 0.9999999999999999, -1.1368683772161603e-13, 0)">
				<path d="M 79.599998 144.300003 H 83.299999 V 149.700003 H 79.599998 V 144.300003 Z" class="st1" style="fill: rgb(255, 255, 255);"/>
			</g><g transform="matrix(0.9999999999999999, 0, 0, 0.9999999999999999, -1.1368683772161603e-13, 0)">
				<path d="M 50.299999 153.100006 H 53.999999 V 158.500006 H 50.299999 V 153.100006 Z" class="st1" style="fill: rgb(255, 255, 255);"/>
			</g><g transform="matrix(0.9999999999999999, 0, 0, 0.9999999999999999, -1.1368683772161603e-13, 0)">
				<path d="M 57.599998 153.100006 H 61.299999 V 158.500006 H 57.599998 V 153.100006 Z" class="st43" style="fill: rgb(255, 202, 110);"/>
			</g><g transform="matrix(0.9999999999999999, 0, 0, 0.9999999999999999, -1.1368683772161603e-13, 0)">
				<path d="M 64.900002 153.100006 H 68.600002 V 158.500006 H 64.900002 V 153.100006 Z" class="st1" style="fill: rgb(255, 255, 255);"/>
			</g><g transform="matrix(0.9999999999999999, 0, 0, 0.9999999999999999, -1.1368683772161603e-13, 0)">
				<path d="M 72.199997 153.100006 H 75.899997 V 158.500006 H 72.199997 V 153.100006 Z" class="st1" style="fill: rgb(255, 255, 255);"/>
			</g><g transform="matrix(0.9999999999999999, 0, 0, 0.9999999999999999, -1.1368683772161603e-13, 0)" style="opacity: 0.6;">
				<path d="M 79.599998 153.100006 H 83.299999 V 158.500006 H 79.599998 V 153.100006 Z" class="st1" style="fill: rgb(255, 255, 255);"/>
			</g><g transform="matrix(0.9999999999999999, 0, 0, 0.9999999999999999, -1.1368683772161603e-13, 0)" style="opacity: 0.6;">
				<path d="M 50.299999 171.899994 H 53.999999 V 177.299994 H 50.299999 V 171.899994 Z" class="st1" style="fill: rgb(255, 255, 255);"/>
			</g><g transform="matrix(0.9999999999999999, 0, 0, 0.9999999999999999, -1.1368683772161603e-13, 0)" style="opacity: 0.6;">
				<path d="M 57.599998 171.899994 H 61.299999 V 177.299994 H 57.599998 V 171.899994 Z" class="st1" style="fill: rgb(255, 255, 255);"/>
			</g><g transform="matrix(0.9999999999999999, 0, 0, 0.9999999999999999, -1.1368683772161603e-13, 0)">
				<path d="M 64.900002 171.899994 H 68.600002 V 177.299994 H 64.900002 V 171.899994 Z" class="st1" style="fill: rgb(255, 255, 255);"/>
			</g><g transform="matrix(0.9999999999999999, 0, 0, 0.9999999999999999, -1.1368683772161603e-13, 0)">
				<path d="M 72.199997 171.899994 H 75.899997 V 177.299994 H 72.199997 V 171.899994 Z" class="st1" style="fill: rgb(255, 255, 255);"/>
			</g><g transform="matrix(0.9999999999999999, 0, 0, 0.9999999999999999, -1.1368683772161603e-13, 0)">
				<path d="M 79.599998 171.899994 H 83.299999 V 177.299994 H 79.599998 V 171.899994 Z" class="st1" style="fill: rgb(255, 255, 255);"/>
			</g><g transform="matrix(0.9999999999999999, 0, 0, 0.9999999999999999, -1.1368683772161603e-13, 0)">
				<path d="M 50.299999 162.699997 H 53.999999 V 168.099997 H 50.299999 V 162.699997 Z" class="st1" style="fill: rgb(255, 255, 255);"/>
			</g><g transform="matrix(0.9999999999999999, 0, 0, 0.9999999999999999, -1.1368683772161603e-13, 0)">
				<path d="M 57.599998 162.699997 H 61.299999 V 168.099997 H 57.599998 V 162.699997 Z" class="st1" style="fill: rgb(255, 255, 255);"/>
			</g><g transform="matrix(0.9999999999999999, 0, 0, 0.9999999999999999, -1.1368683772161603e-13, 0)" style="opacity: 0.6;">
				<path d="M 64.900002 162.699997 H 68.600002 V 168.099997 H 64.900002 V 162.699997 Z" class="st1" style="fill: rgb(255, 255, 255);"/>
			</g><g transform="matrix(0.9999999999999999, 0, 0, 0.9999999999999999, -1.1368683772161603e-13, 0)">
				<path d="M 72.199997 162.699997 H 75.899997 V 168.099997 H 72.199997 V 162.699997 Z" class="st1" style="fill: rgb(255, 255, 255);"/>
			</g><g transform="matrix(0.9999999999999999, 0, 0, 0.9999999999999999, -1.1368683772161603e-13, 0)">
				<path d="M 79.599998 162.699997 H 83.299999 V 168.099997 H 79.599998 V 162.699997 Z" class="st1" style="fill: rgb(255, 255, 255);"/>
			</g><g transform="matrix(0.9999999999999999, 0, 0, 0.9999999999999999, -1.1368683772161603e-13, 0)">
				<path d="M 50.299999 181.100006 H 53.999999 V 186.500006 H 50.299999 V 181.100006 Z" class="st1" style="fill: rgb(255, 255, 255);"/>
			</g><g transform="matrix(0.9999999999999999, 0, 0, 0.9999999999999999, -1.1368683772161603e-13, 0)">
				<path d="M 57.599998 181.100006 H 61.299999 V 186.500006 H 57.599998 V 181.100006 Z" class="st1" style="fill: rgb(255, 255, 255);"/>
			</g><g transform="matrix(0.9999999999999999, 0, 0, 0.9999999999999999, -1.1368683772161603e-13, 0)">
				<path d="M 64.900002 181.100006 H 68.600002 V 186.500006 H 64.900002 V 181.100006 Z" class="st1" style="fill: rgb(255, 255, 255);"/>
			</g><g transform="matrix(0.9999999999999999, 0, 0, 0.9999999999999999, -1.1368683772161603e-13, 0)" style="opacity: 0.6;">
				<path d="M 72.199997 181.100006 H 75.899997 V 186.500006 H 72.199997 V 181.100006 Z" class="st1" style="fill: rgb(255, 255, 255);"/>
			</g><g transform="matrix(0.9999999999999999, 0, 0, 0.9999999999999999, -1.1368683772161603e-13, 0)">
				<path d="M 79.599998 181.100006 H 83.299999 V 186.500006 H 79.599998 V 181.100006 Z" class="st43" style="fill: rgb(255, 202, 110);"/>
			</g><g transform="matrix(0.9999999999999999, 0, 0, 0.9999999999999999, -8.526512829121202e-14, 0)">
			<g>
				<path d="M 191.5 128.800003 H 192.2 V 138.000003 H 191.5 V 128.800003 Z" class="st44" style="fill: rgb(14, 54, 86);"/>
			</g>
		</g><g transform="matrix(0.9999999999999999, 0, 0, 0.9999999999999999, -8.526512829121202e-14, 0)">
			<path d="M 201.5 133.6999969482422 L 192.3000030517578 133.6999969482422 L 192.3000030517578 128.8000030517578 L 201.5 128.8000030517578 L 200.1999969482422 131.3000030517578 Z" class="st45" style="fill: rgb(223, 84, 68);"/>
		</g>
<g transform="matrix(0.9999999999999999, 0, 0, 0.9999999999999999, -2.842170943040401e-14, 0)">
		<g>
			<path d="M 6.2 140.699997 H 36.499999 V 193.199997 H 6.2 V 140.699997 Z" class="st39" style="fill: rgb(216, 235, 240);"/>
		</g>
	</g><g transform="matrix(0.9999999999999999, 0, 0, 0.9999999999999999, -8.526512829121202e-14, 0)">
			<path d="M 4.8 137.699997 H 37.8 V 140.699997 H 4.8 V 137.699997 Z" class="st45" style="fill: rgb(223, 84, 68);"/>
		</g><g transform="matrix(0.9999999999999999, 0, 0, 0.9999999999999999, -8.526512829121202e-14, 0)">
			<path d="M 285.700012 114.199997 H 334.100014 V 117.199997 H 285.700012 V 114.199997 Z" class="st45" style="fill: rgb(223, 84, 68);"/>
		</g><g transform="matrix(0.9999999999999999, 0, 0, 0.9999999999999999, -8.526512829121202e-14, 0)">
			<g>
				<path d="M 22.5 169.600006 H 33.1 V 178.500006 H 22.5 V 169.600006 Z" class="st1" style="fill: rgb(255, 255, 255);"/>
			</g>
		</g><g transform="matrix(0.9999999999999999, 0, 0, 0.9999999999999999, -1.1368683772161603e-13, 0)">
				<path d="M 9.6 169.600006 H 20.200001 V 178.500006 H 9.6 V 169.600006 Z" class="st43" style="fill: rgb(255, 202, 110);"/>
			</g><g transform="matrix(0.9999999999999999, 0, 0, 0.9999999999999999, -1.1368683772161603e-13, 0)">
				<path d="M 22.5 158.699997 H 33.1 V 167.599997 H 22.5 V 158.699997 Z" class="st1" style="fill: rgb(255, 255, 255);"/>
			</g><g transform="matrix(0.9999999999999999, 0, 0, 0.9999999999999999, -1.1368683772161603e-13, 0)">
				<path d="M 9.6 158.699997 H 20.200001 V 167.599997 H 9.6 V 158.699997 Z" class="st1" style="fill: rgb(255, 255, 255);"/>
			</g><g transform="matrix(0.9999999999999999, 0, 0, 0.9999999999999999, -1.1368683772161603e-13, 0)">
				<path d="M 22.5 147.800003 H 33.1 V 156.700003 H 22.5 V 147.800003 Z" class="st1" style="fill: rgb(255, 255, 255);"/>
			</g><g transform="matrix(0.9999999999999999, 0, 0, 0.9999999999999999, -1.1368683772161603e-13, 0)">
				<path d="M 9.6 147.800003 H 20.200001 V 156.700003 H 9.6 V 147.800003 Z" class="st1" style="fill: rgb(255, 255, 255);"/>
			</g><g transform="matrix(0.9999999999999999, 0, 0, 0.9999999999999999, -8.526512829121202e-14, 0)">
			<path d="M 9.6 181.699997 H 20.200001 V 193.299997 H 9.6 V 181.699997 Z" class="st44" style="fill: rgb(14, 54, 86);"/>
		</g><g transform="matrix(0.9999999999999999, 0, 0, 0.9999999999999999, -8.526512829121202e-14, 0)">
			<path d="M 238.100006 141 H 278.600006 V 192.900002 H 238.100006 V 141 Z" class="st45" style="fill: rgb(223, 84, 68);"/>
		</g><g transform="matrix(0.9999999999999999, 0, 0, 0.9999999999999999, -8.526512829121202e-14, 0)">
			<path d="M 95.800003 152 H 126.500004 V 193.099998 H 95.800003 V 152 Z" class="st45" style="fill: rgb(223, 84, 68);"/>
		</g><g transform="matrix(0.9999999999999999, 0, 0, 0.9999999999999999, -8.526512829121202e-14, 0)">
			<path d="M 235.899994 138.199997 H 280.999992 V 140.999997 H 235.899994 V 138.199997 Z" class="st44" style="fill: rgb(14, 54, 86);"/>
		</g><g transform="matrix(0.9999999999999999, 0, 0, 0.9999999999999999, -8.526512829121202e-14, 0)">
			<path d="M 94.099998 149.100006 H 128.099998 V 151.900006 H 94.099998 V 149.100006 Z" class="st44" style="fill: rgb(14, 54, 86);"/>
		</g><g transform="matrix(0.9999999999999999, 0, 0, 0.9999999999999999, -8.526512829121202e-14, 0)">
			<path d="M 126.5 176.800003 H 144.299999 V 179.600003 H 126.5 V 176.800003 Z" class="st44" style="fill: rgb(14, 54, 86);"/>
		</g><g transform="matrix(0.9999999999999999, 0, 0, 0.9999999999999999, -8.526512829121202e-14, 0)">
			<path d="M 243 181.5 H 248.6 V 188.9 H 243 V 181.5 Z" class="st46" style="fill: rgb(68, 141, 153);"/>
		</g><g transform="matrix(0.9999999999999999, 0, 0, 0.9999999999999999, -8.526512829121202e-14, 0)" style="opacity: 0.6;">
			<path d="M 99.900002 181.199997 H 105.500001 V 188.599997 H 99.900002 V 181.199997 Z" class="st1" style="fill: rgb(255, 255, 255);"/>
		</g><g transform="matrix(0.9999999999999999, 0, 0, 0.9999999999999999, -8.526512829121202e-14, 0)">
			<path d="M 108.300003 181.199997 H 113.900003 V 188.599997 H 108.300003 V 181.199997 Z" class="st43" style="fill: rgb(255, 202, 110);"/>
		</g><g transform="matrix(0.9999999999999999, 0, 0, 0.9999999999999999, -8.526512829121202e-14, 0)" style="opacity: 0.6;">
			<path d="M 116.699997 181.199997 H 122.299997 V 188.599997 H 116.699997 V 181.199997 Z" class="st1" style="fill: rgb(255, 255, 255);"/>
		</g><g transform="matrix(0.9999999999999999, 0, 0, 0.9999999999999999, -8.526512829121202e-14, 0)">
			<path d="M 99.900002 169.100006 H 105.500001 V 176.500006 H 99.900002 V 169.100006 Z" class="st1" style="fill: rgb(255, 255, 255);"/>
		</g><g transform="matrix(0.9999999999999999, 0, 0, 0.9999999999999999, -8.526512829121202e-14, 0)" style="opacity: 0.6;">
			<path d="M 108.300003 169.100006 H 113.900003 V 176.500006 H 108.300003 V 169.100006 Z" class="st1" style="fill: rgb(255, 255, 255);"/>
		</g><g transform="matrix(0.9999999999999999, 0, 0, 0.9999999999999999, -8.526512829121202e-14, 0)">
			<path d="M 116.699997 169.100006 H 122.299997 V 176.500006 H 116.699997 V 169.100006 Z" class="st47" style="fill: rgb(250, 171, 31);"/>
		</g><g transform="matrix(0.9999999999999999, 0, 0, 0.9999999999999999, -8.526512829121202e-14, 0)">
			<path d="M 99.900002 156.899994 H 105.500001 V 164.299994 H 99.900002 V 156.899994 Z" class="st47" style="fill: rgb(250, 171, 31);"/>
		</g><g transform="matrix(0.9999999999999999, 0, 0, 0.9999999999999999, -8.526512829121202e-14, 0)">
			<path d="M 108.300003 156.899994 H 113.900003 V 164.299994 H 108.300003 V 156.899994 Z" class="st1" style="fill: rgb(255, 255, 255);"/>
		</g><g transform="matrix(0.9999999999999999, 0, 0, 0.9999999999999999, -8.526512829121202e-14, 0)">
			<path d="M 116.699997 156.899994 H 122.299997 V 164.299994 H 116.699997 V 156.899994 Z" class="st1" style="fill: rgb(255, 255, 255);"/>
		</g><g transform="matrix(0.9999999999999999, 0, 0, 0.9999999999999999, -8.526512829121202e-14, 0)">
			<path d="M 252.800003 181.5 H 264.000003 V 193 H 252.800003 V 181.5 Z" class="st44" style="fill: rgb(14, 54, 86);"/>
		</g><g transform="matrix(0.9999999999999999, 0, 0, 0.9999999999999999, -8.526512829121202e-14, 0)">
			<g>
				<path d="M 268.200012 181.5 H 273.800012 V 188.9 H 268.200012 V 181.5 Z" class="st39" style="fill: rgb(216, 235, 240);"/>
			</g>
		</g><g transform="matrix(0.9999999999999999, 0, 0, 0.9999999999999999, -1.1368683772161603e-13, 0)">
				<path d="M 243 169.300003 H 248.6 V 176.700003 H 243 V 169.300003 Z" class="st1" style="fill: rgb(255, 255, 255);"/>
			</g><g transform="matrix(0.9999999999999999, 0, 0, 0.9999999999999999, -1.1368683772161603e-13, 0)">
				<path d="M 251.399994 169.300003 H 256.999994 V 176.700003 H 251.399994 V 169.300003 Z" class="st39" style="fill: rgb(216, 235, 240);"/>
			</g><g transform="matrix(0.9999999999999999, 0, 0, 0.9999999999999999, -1.1368683772161603e-13, 0)">
				<path d="M 259.799988 169.300003 H 265.399988 V 176.700003 H 259.799988 V 169.300003 Z" class="st39" style="fill: rgb(216, 235, 240);"/>
			</g><g transform="matrix(0.9999999999999999, 0, 0, 0.9999999999999999, -1.1368683772161603e-13, 0)">
				<path d="M 268.200012 169.300003 H 273.800012 V 176.700003 H 268.200012 V 169.300003 Z" class="st39" style="fill: rgb(216, 235, 240);"/>
			</g><g transform="matrix(0.9999999999999999, 0, 0, 0.9999999999999999, -1.1368683772161603e-13, 0)">
				<path d="M 243 157.199997 H 248.6 V 164.599997 H 243 V 157.199997 Z" class="st39" style="fill: rgb(216, 235, 240);"/>
			</g><g transform="matrix(0.9999999999999999, 0, 0, 0.9999999999999999, -1.1368683772161603e-13, 0)">
				<path d="M 251.399994 157.199997 H 256.999994 V 164.599997 H 251.399994 V 157.199997 Z" class="st39" style="fill: rgb(216, 235, 240);"/>
			</g><g transform="matrix(0.9999999999999999, 0, 0, 0.9999999999999999, -1.1368683772161603e-13, 0)">
				<path d="M 259.799988 157.199997 H 265.399988 V 164.599997 H 259.799988 V 157.199997 Z" class="st1" style="fill: rgb(255, 255, 255);"/>
			</g><g transform="matrix(0.9999999999999999, 0, 0, 0.9999999999999999, -1.1368683772161603e-13, 0)">
				<path d="M 268.200012 157.199997 H 273.800012 V 164.599997 H 268.200012 V 157.199997 Z" class="st1" style="fill: rgb(255, 255, 255);"/>
			</g><g transform="matrix(0.9999999999999999, 0, 0, 0.9999999999999999, -1.1368683772161603e-13, 0)">
				<path d="M 243 145.100006 H 248.6 V 152.500006 H 243 V 145.100006 Z" class="st39" style="fill: rgb(216, 235, 240);"/>
			</g><g transform="matrix(0.9999999999999999, 0, 0, 0.9999999999999999, -1.1368683772161603e-13, 0)">
				<path d="M 251.399994 145.100006 H 256.999994 V 152.500006 H 251.399994 V 145.100006 Z" class="st1" style="fill: rgb(255, 255, 255);"/>
			</g><g transform="matrix(0.9999999999999999, 0, 0, 0.9999999999999999, -1.1368683772161603e-13, 0)">
				<path d="M 259.799988 145.100006 H 265.399988 V 152.500006 H 259.799988 V 145.100006 Z" class="st39" style="fill: rgb(216, 235, 240);"/>
			</g><g transform="matrix(0.9999999999999999, 0, 0, 0.9999999999999999, -1.1368683772161603e-13, 0)">
				<path d="M 268.200012 145.100006 H 273.800012 V 152.500006 H 268.200012 V 145.100006 Z" class="st39" style="fill: rgb(216, 235, 240);"/>
			</g><g transform="matrix(0.9999999999999999, 0, 0, 0.9999999999999999, -1.1368683772161603e-13, 0)">
				<path d="M 243 188.89999389648438 L 248.60000610351562 188.89999389648438 L 248.60000610351562 181.5 L 243.60000610351562 181.5 L 243 182 Z" class="st39" style="fill: rgb(216, 235, 240);"/>
			</g><g transform="matrix(0.9999999999999999, 0, 0, 0.9999999999999999, -8.526512829121202e-14, 0)">
			<path d="M 248.60000610351562 176.5 L 248.3000030517578 176.6999969482422 L 248.60000610351562 176.6999969482422 Z" class="st48" style="fill: rgb(52, 115, 130);"/>
		</g><g transform="matrix(0.9999999999999999, 0, 0, 0.9999999999999999, -8.526512829121202e-14, 0)">
			<g>
				<path d="M 9.6 154.399994 H 20.200001 V 156.799994 H 9.6 V 154.399994 Z" class="st44" style="fill: rgb(14, 54, 86);"/>
			</g>
		</g><g transform="matrix(0.9999999999999999, 0, 0, 0.9999999999999999, -1.1368683772161603e-13, 0)">
				<path d="M 22.5 154.399994 H 33.1 V 156.799994 H 22.5 V 154.399994 Z" class="st44" style="fill: rgb(14, 54, 86);"/>
			</g><g transform="matrix(0.9999999999999999, 0, 0, 0.9999999999999999, -1.1368683772161603e-13, 0)">
				<path d="M 9.6 165.300003 H 20.200001 V 167.700003 H 9.6 V 165.300003 Z" class="st44" style="fill: rgb(14, 54, 86);"/>
			</g><g transform="matrix(0.9999999999999999, 0, 0, 0.9999999999999999, -1.1368683772161603e-13, 0)">
				<path d="M 22.5 165.300003 H 33.1 V 167.700003 H 22.5 V 165.300003 Z" class="st44" style="fill: rgb(14, 54, 86);"/>
			</g><g transform="matrix(0.9999999999999999, 0, 0, 0.9999999999999999, -1.1368683772161603e-13, 0)">
				<path d="M 9.6 176.300003 H 20.200001 V 178.700003 H 9.6 V 176.300003 Z" class="st44" style="fill: rgb(14, 54, 86);"/>
			</g><g transform="matrix(0.9999999999999999, 0, 0, 0.9999999999999999, -1.1368683772161603e-13, 0)">
				<path d="M 22.5 176.300003 H 33.1 V 178.700003 H 22.5 V 176.300003 Z" class="st44" style="fill: rgb(14, 54, 86);"/>
			</g><g transform="matrix(0.9999999999999999, 0, 0, 0.9999999999999999, -8.526512829121202e-14, 0)">
			<path d="M 287.600006 117.199997 H 331.400005 V 193 H 287.600006 V 117.199997 Z" class="st39" style="fill: rgb(216, 235, 240);"/>
		</g><g transform="matrix(0.9999999999999999, 0, 0, 0.9999999999999999, -8.526512829121202e-14, 0)">
			<g>
				<path d="M 292.299988 124.400002 H 299.099988 V 129.700002 H 292.299988 V 124.400002 Z" class="st1" style="fill: rgb(255, 255, 255);"/>
			</g>
		</g><g transform="matrix(0.9999999999999999, 0, 0, 0.9999999999999999, -1.1368683772161603e-13, 0)" style="opacity: 0.7;">
				<path d="M 292.299988 132.100006 H 299.099988 V 137.400006 H 292.299988 V 132.100006 Z" class="st1" style="fill: rgb(255, 255, 255);"/>
			</g><g transform="matrix(0.9999999999999999, 0, 0, 0.9999999999999999, -1.1368683772161603e-13, 0)">
				<path d="M 292.299988 139.800003 H 299.099988 V 145.100003 H 292.299988 V 139.800003 Z" class="st1" style="fill: rgb(255, 255, 255);"/>
			</g><g transform="matrix(0.9999999999999999, 0, 0, 0.9999999999999999, -1.1368683772161603e-13, 0)">
				<path d="M 292.299988 147.5 H 299.099988 V 152.8 H 292.299988 V 147.5 Z" class="st43" style="fill: rgb(255, 202, 110);"/>
			</g><g transform="matrix(0.9999999999999999, 0, 0, 0.9999999999999999, -1.1368683772161603e-13, 0)" style="opacity: 0.7;">
				<path d="M 292.299988 158.199997 H 299.099988 V 163.499997 H 292.299988 V 158.199997 Z" class="st1" style="fill: rgb(255, 255, 255);"/>
			</g><g transform="matrix(0.9999999999999999, 0, 0, 0.9999999999999999, -1.1368683772161603e-13, 0)">
				<path d="M 292.299988 165.899994 H 299.099988 V 171.199994 H 292.299988 V 165.899994 Z" class="st1" style="fill: rgb(255, 255, 255);"/>
			</g><g transform="matrix(0.9999999999999999, 0, 0, 0.9999999999999999, -1.1368683772161603e-13, 0)">
				<path d="M 292.299988 173.600006 H 299.099988 V 178.900006 H 292.299988 V 173.600006 Z" class="st1" style="fill: rgb(255, 255, 255);"/>
			</g><g transform="matrix(0.9999999999999999, 0, 0, 0.9999999999999999, -1.1368683772161603e-13, 0)">
				<path d="M 292.299988 181.300003 H 299.099988 V 186.600003 H 292.299988 V 181.300003 Z" class="st1" style="fill: rgb(255, 255, 255);"/>
			</g><g transform="matrix(0.9999999999999999, 0, 0, 0.9999999999999999, -1.1368683772161603e-13, 0)">
				<path d="M 301.5 124.400002 H 308.3 V 129.700002 H 301.5 V 124.400002 Z" class="st43" style="fill: rgb(255, 202, 110);"/>
			</g><g transform="matrix(0.9999999999999999, 0, 0, 0.9999999999999999, -1.1368683772161603e-13, 0)">
				<path d="M 301.5 132.100006 H 308.3 V 137.400006 H 301.5 V 132.100006 Z" class="st1" style="fill: rgb(255, 255, 255);"/>
			</g><g transform="matrix(0.9999999999999999, 0, 0, 0.9999999999999999, -1.1368683772161603e-13, 0)">
				<path d="M 301.5 139.800003 H 308.3 V 145.100003 H 301.5 V 139.800003 Z" class="st1" style="fill: rgb(255, 255, 255);"/>
			</g><g transform="matrix(0.9999999999999999, 0, 0, 0.9999999999999999, -1.1368683772161603e-13, 0)">
				<path d="M 301.5 147.5 H 308.3 V 152.8 H 301.5 V 147.5 Z" class="st1" style="fill: rgb(255, 255, 255);"/>
			</g><g transform="matrix(0.9999999999999999, 0, 0, 0.9999999999999999, -1.1368683772161603e-13, 0)">
				<path d="M 301.5 158.199997 H 308.3 V 163.499997 H 301.5 V 158.199997 Z" class="st1" style="fill: rgb(255, 255, 255);"/>
			</g><g transform="matrix(0.9999999999999999, 0, 0, 0.9999999999999999, -1.1368683772161603e-13, 0)" style="opacity: 0.7;">
				<path d="M 301.5 165.899994 H 308.3 V 171.199994 H 301.5 V 165.899994 Z" class="st1" style="fill: rgb(255, 255, 255);"/>
			</g><g transform="matrix(0.9999999999999999, 0, 0, 0.9999999999999999, -1.1368683772161603e-13, 0)">
				<path d="M 301.5 173.600006 H 308.3 V 178.900006 H 301.5 V 173.600006 Z" class="st1" style="fill: rgb(255, 255, 255);"/>
			</g><g transform="matrix(0.9999999999999999, 0, 0, 0.9999999999999999, -1.1368683772161603e-13, 0)">
				<path d="M 301.5 181.300003 H 308.3 V 186.600003 H 301.5 V 181.300003 Z" class="st43" style="fill: rgb(255, 202, 110);"/>
			</g><g transform="matrix(0.9999999999999999, 0, 0, 0.9999999999999999, -1.1368683772161603e-13, 0)">
				<path d="M 310.700012 124.400002 H 317.500012 V 129.700002 H 310.700012 V 124.400002 Z" class="st1" style="fill: rgb(255, 255, 255);"/>
			</g><g transform="matrix(0.9999999999999999, 0, 0, 0.9999999999999999, -1.1368683772161603e-13, 0)" style="opacity: 0.7;">
				<path d="M 310.700012 132.100006 H 317.500012 V 137.400006 H 310.700012 V 132.100006 Z" class="st1" style="fill: rgb(255, 255, 255);"/>
			</g><g transform="matrix(0.9999999999999999, 0, 0, 0.9999999999999999, -1.1368683772161603e-13, 0)">
				<path d="M 310.700012 139.800003 H 317.500012 V 145.100003 H 310.700012 V 139.800003 Z" class="st1" style="fill: rgb(255, 255, 255);"/>
			</g><g transform="matrix(0.9999999999999999, 0, 0, 0.9999999999999999, -1.1368683772161603e-13, 0)" style="opacity: 0.7;">
				<path d="M 310.700012 147.5 H 317.500012 V 152.8 H 310.700012 V 147.5 Z" class="st1" style="fill: rgb(255, 255, 255);"/>
			</g><g transform="matrix(0.9999999999999999, 0, 0, 0.9999999999999999, -1.1368683772161603e-13, 0)">
				<path d="M 310.700012 158.199997 H 317.500012 V 163.499997 H 310.700012 V 158.199997 Z" class="st1" style="fill: rgb(255, 255, 255);"/>
			</g><g transform="matrix(0.9999999999999999, 0, 0, 0.9999999999999999, -1.1368683772161603e-13, 0)">
				<path d="M 310.700012 165.899994 H 317.500012 V 171.199994 H 310.700012 V 165.899994 Z" class="st1" style="fill: rgb(255, 255, 255);"/>
			</g><g transform="matrix(0.9999999999999999, 0, 0, 0.9999999999999999, -1.1368683772161603e-13, 0)">
				<path d="M 310.700012 173.600006 H 317.500012 V 178.900006 H 310.700012 V 173.600006 Z" class="st1" style="fill: rgb(255, 255, 255);"/>
			</g><g transform="matrix(0.9999999999999999, 0, 0, 0.9999999999999999, -1.1368683772161603e-13, 0)">
				<path d="M 310.700012 181.300003 H 317.500012 V 186.600003 H 310.700012 V 181.300003 Z" class="st1" style="fill: rgb(255, 255, 255);"/>
			</g><g transform="matrix(0.9999999999999999, 0, 0, 0.9999999999999999, -1.1368683772161603e-13, 0)">
				<path d="M 319.899994 124.400002 H 326.699994 V 129.700002 H 319.899994 V 124.400002 Z" class="st1" style="fill: rgb(255, 255, 255);"/>
			</g><g transform="matrix(0.9999999999999999, 0, 0, 0.9999999999999999, -1.1368683772161603e-13, 0)">
				<path d="M 319.899994 132.100006 H 326.699994 V 137.400006 H 319.899994 V 132.100006 Z" class="st1" style="fill: rgb(255, 255, 255);"/>
			</g><g transform="matrix(0.9999999999999999, 0, 0, 0.9999999999999999, -1.1368683772161603e-13, 0)">
				<path d="M 319.899994 139.800003 H 326.699994 V 145.100003 H 319.899994 V 139.800003 Z" class="st43" style="fill: rgb(255, 202, 110);"/>
			</g><g transform="matrix(0.9999999999999999, 0, 0, 0.9999999999999999, -1.1368683772161603e-13, 0)" style="opacity: 0.7;">
				<path d="M 319.899994 147.5 H 326.699994 V 152.8 H 319.899994 V 147.5 Z" class="st1" style="fill: rgb(255, 255, 255);"/>
			</g><g transform="matrix(0.9999999999999999, 0, 0, 0.9999999999999999, -1.1368683772161603e-13, 0)">
				<path d="M 319.899994 158.199997 H 326.699994 V 163.499997 H 319.899994 V 158.199997 Z" class="st43" style="fill: rgb(255, 202, 110);"/>
			</g><g transform="matrix(0.9999999999999999, 0, 0, 0.9999999999999999, -1.1368683772161603e-13, 0)">
				<path d="M 319.899994 165.899994 H 326.699994 V 171.199994 H 319.899994 V 165.899994 Z" class="st1" style="fill: rgb(255, 255, 255);"/>
			</g><g transform="matrix(0.9999999999999999, 0, 0, 0.9999999999999999, -1.1368683772161603e-13, 0)">
				<path d="M 319.899994 173.600006 H 326.699994 V 178.900006 H 319.899994 V 173.600006 Z" class="st1" style="fill: rgb(255, 255, 255);"/>
			</g><g transform="matrix(0.9999999999999999, 0, 0, 0.9999999999999999, -1.1368683772161603e-13, 0)" style="opacity: 0.7;">
				<path d="M 319.899994 181.300003 H 326.699994 V 186.600003 H 319.899994 V 181.300003 Z" class="st1" style="fill: rgb(255, 255, 255);"/>
			</g><g transform="matrix(0.9999999999999999, 0, 0, 0.9999999999999999, -8.526512829121202e-14, 0)">
			<path d="M 126.400002 179.699997 H 144.300001 V 193.099997 H 126.400002 V 179.699997 Z" class="st50" style="fill: rgb(83, 102, 127);"/>
		</g><g transform="matrix(0.9999999999999999, 0, 0, 0.9999999999999999, -8.526512829121202e-14, 0)">
			<g>
				<path d="M 139 185.300003 H 142.4 V 188.700003 H 139 V 185.300003 Z" class="st1" style="fill: rgb(255, 255, 255);"/>
			</g>
		</g><g transform="matrix(0.9999999999999999, 0, 0, 0.9999999999999999, -1.1368683772161603e-13, 0)">
				<path d="M 134 185.300003 H 137.4 V 188.700003 H 134 V 185.300003 Z" class="st1" style="fill: rgb(255, 255, 255);"/>
			</g><g transform="matrix(0.9999999999999999, 0, 0, 0.9999999999999999, -1.1368683772161603e-13, 0)">
				<path d="M 129.100006 185.300003 H 132.500006 V 188.700003 H 129.100006 V 185.300003 Z" class="st1" style="fill: rgb(255, 255, 255);"/>
			</g><g transform="matrix(0.9999999999999999, 0, 0, 0.9999999999999999, -8.526512829121202e-14, 0)">
			<path d="M 151.100006 154.800003 H 180.500006 V 193.100002 H 151.100006 V 154.800003 Z" class="st47" style="fill: rgb(250, 171, 31);"/>
		</g><g transform="matrix(0.9999999999999999, 0, 0, 0.9999999999999999, -8.526512829121202e-14, 0)">
			<path d="M 161.899994 182.300003 H 169.599994 V 193.200003 H 161.899994 V 182.300003 Z" class="st50" style="fill: rgb(83, 102, 127);"/>
		</g><g transform="matrix(0.9999999999999999, 0, 0, 0.9999999999999999, -8.526512829121202e-14, 0)">
			<path d="M 203.5 154.800003 H 232.9 V 193.100002 H 203.5 V 154.800003 Z" class="st47" style="fill: rgb(250, 171, 31);"/>
		</g><g transform="matrix(0.9999999999999999, 0, 0, 0.9999999999999999, -8.526512829121202e-14, 0)">
			<path d="M 214.300003 182.300003 H 222.000003 V 193.200003 H 214.300003 V 182.300003 Z" class="st50" style="fill: rgb(83, 102, 127);"/>
		</g><g transform="matrix(0.9999999999999999, 0, 0, 0.9999999999999999, -8.526512829121202e-14, 0)">
			<path d="M 177.300003 138.199997 H 206.700003 V 193.199997 H 177.300003 V 138.199997 Z" class="st43" style="fill: rgb(255, 202, 110);"/>
		</g><g class="st42" transform="matrix(0.9999999999999999, 0, 0, 0.9999999999999999, -8.526512829121202e-14, 0)" style="opacity: 0.6;">
			<g>
				<g>
					<g>
						<path d="M 156.199997 169.5 H 162.599997 V 178.4 H 156.199997 V 169.5 Z" class="st1" style="fill: rgb(255, 255, 255);"/>
					</g>
				</g>
			</g>
			<g>
				<g>
					<g>
						<path d="M 168.899994 169.5 H 175.299994 V 178.4 H 168.899994 V 169.5 Z" class="st1" style="fill: rgb(255, 255, 255);"/>
					</g>
				</g>
			</g>
		</g><g transform="matrix(0.9999999999999999, 0, 0, 0.9999999999999999, -1.1368683772161603e-13, 0)">
				<g>
					<g>
						<path d="M 156.199997 158 H 162.599997 V 166.9 H 156.199997 V 158 Z" class="st1" style="fill: rgb(255, 255, 255);"/>
					</g>
				</g>
			</g><g transform="matrix(0.9999999999999999, 0, 0, 0.9999999999999999, -1.4210854715202004e-13, 0)">
					<g>
						<path d="M 168.899994 158 H 175.299994 V 166.9 H 168.899994 V 158 Z" class="st1" style="fill: rgb(255, 255, 255);"/>
					</g>
				</g><g transform="matrix(0.9999999999999999, 0, 0, 0.9999999999999999, -1.1368683772161603e-13, 0)">
				<g>
					<g>
						<path d="M 208.600006 169.5 H 215.000006 V 178.4 H 208.600006 V 169.5 Z" class="st1" style="fill: rgb(255, 255, 255);"/>
					</g>
				</g>
			</g><g transform="matrix(0.9999999999999999, 0, 0, 0.9999999999999999, -1.4210854715202004e-13, 0)">
					<g>
						<path d="M 221.300003 169.5 H 227.700003 V 178.4 H 221.300003 V 169.5 Z" class="st1" style="fill: rgb(255, 255, 255);"/>
					</g>
				</g><g transform="matrix(0.9999999999999999, 0, 0, 0.9999999999999999, -1.1368683772161603e-13, 0)">
				<g>
					<g>
						<path d="M 208.600006 158 H 215.000006 V 166.9 H 208.600006 V 158 Z" class="st1" style="fill: rgb(255, 255, 255);"/>
					</g>
				</g>
			</g><g transform="matrix(0.9999999999999999, 0, 0, 0.9999999999999999, -1.4210854715202004e-13, 0)" style="opacity: 0.8;">
					<g>
						<path d="M 221.300003 158 H 227.700003 V 166.9 H 221.300003 V 158 Z" class="st1" style="fill: rgb(255, 255, 255);"/>
					</g>
				</g><g transform="matrix(0.9999999999999999, 0, 0, 0.9999999999999999, -1.1368683772161603e-13, 0)">
				<g>
					<g>
						<path d="M 182.399994 146 H 188.799994 V 154.9 H 182.399994 V 146 Z" class="st1" style="fill: rgb(255, 255, 255);"/>
					</g>
				</g>
			</g><g transform="matrix(0.9999999999999999, 0, 0, 0.9999999999999999, -1.4210854715202004e-13, 0)">
					<g>
						<path d="M 195.100006 146 H 201.500006 V 154.9 H 195.100006 V 146 Z" class="st1" style="fill: rgb(255, 255, 255);"/>
					</g>
				</g><g transform="matrix(0.9999999999999999, 0, 0, 0.9999999999999999, -1.1368683772161603e-13, 0)">
				<g>
					<g>
						<path d="M 182.399994 169.5 H 188.799994 V 178.4 H 182.399994 V 169.5 Z" class="st1" style="fill: rgb(255, 255, 255);"/>
					</g>
				</g>
			</g><g transform="matrix(0.9999999999999999, 0, 0, 0.9999999999999999, -1.4210854715202004e-13, 0)">
					<g>
						<path d="M 195.100006 169.5 H 201.500006 V 178.4 H 195.100006 V 169.5 Z" class="st1" style="fill: rgb(255, 255, 255);"/>
					</g>
				</g><g class="st52" transform="matrix(0.9999999999999999, 0, 0, 0.9999999999999999, -1.1368683772161603e-13, 0)" style="opacity: 0.4;">
				<g>
					<g>
						<path d="M 182.399994 158 H 188.799994 V 166.9 H 182.399994 V 158 Z" class="st1" style="fill: rgb(255, 255, 255);"/>
					</g>
				</g>
			</g><g transform="matrix(0.9999999999999999, 0, 0, 0.9999999999999999, -1.4210854715202004e-13, 0)">
					<g>
						<path d="M 195.100006 158 H 201.500006 V 166.9 H 195.100006 V 158 Z" class="st1" style="fill: rgb(255, 255, 255);"/>
					</g>
				</g><g transform="matrix(0.9999999999999999, 0, 0, 0.9999999999999999, -8.526512829121202e-14, 0)">
			<path d="M 188.100006 182.300003 H 195.800006 V 193.200003 H 188.100006 V 182.300003 Z" class="st50" style="fill: rgb(83, 102, 127);"/>
		</g><g transform="matrix(0.9999999999999999, 0, 0, 0.9999999999999999, -8.526512829121202e-14, 0)">
			<g>
				<path class="st47" d="M83,74.9h-1v5h-2.7h-5h-2.6v-5h-1v5v0.5v6c0,1.2,1,2.2,2.2,2.2h2.5h2.8h2.5c1.2,0,2.2-1,2.2-2.2v-6h0V74.9&#10;&#9;&#9;&#9;&#9;&#9;z M71.7,86.3v-5.5h2.6v5.5c0,0.4,0.1,0.9,0.2,1.3H73C72.3,87.6,71.7,87,71.7,86.3z M75.6,87.6c-0.1-0.1-0.2-0.6-0.2-1.3v-5.5&#10;&#9;&#9;&#9;&#9;&#9;h3.1v5.5c0,0.7-0.2,1.1-0.2,1.3H75.6z M82,86.3c0,0.7-0.6,1.3-1.3,1.3h-1.6c0.1-0.4,0.2-0.8,0.2-1.3v-5.5H82V86.3z" style="fill: rgb(250, 171, 31);"/>
			</g>
		</g><g transform="matrix(0.9999999999999999, 0, 0, 0.9999999999999999, -1.1368683772161603e-13, 0)">
				<path class="st45" d="M83,75c7-7.8,17.8-21.4,17.8-31.4c0-14.9-10.6-24.8-23.8-24.8c-13.1,0-23.8,9.9-23.8,24.8&#10;&#9;&#9;&#9;&#9;&#9;C53.2,53.6,64,67.2,71,75H83z" style="fill: rgb(223, 84, 68);"/>
			</g><g transform="matrix(0.9999999999999999, 0, 0, 0.9999999999999999, -1.1368683772161603e-13, 0)">
				<path class="st1" d="M81.2,75c5-7.8,12.6-21.4,12.6-31.4c0-14.9-7.6-24.8-16.9-24.8c-9.3,0-16.9,9.9-16.9,24.8&#10;&#9;&#9;&#9;&#9;&#9;c0,10,7.6,23.6,12.7,31.4H81.2z" style="fill: rgb(255, 255, 255);"/>
			</g><g transform="matrix(0.9999999999999999, 0, 0, 0.9999999999999999, -1.1368683772161603e-13, 0)">
				<path class="st45" d="M79,75c2.3-7.8,5.9-21.4,5.9-31.4c0-14.9-3.5-24.8-7.8-24.8s-7.8,9.9-7.8,24.8c0,10,3.5,23.6,5.9,31.4H79z&#10;&#9;&#9;&#9;&#9;&#9;" style="fill: rgb(223, 84, 68);"/>
			</g><g transform="matrix(0.9999999999999999, 0, 0, 0.9999999999999999, -1.1368683772161603e-13, 0)">
				<path class="st43" d="M71.7,86.3v-5.5h2.6v5.5c0,0.4,0.1,0.9,0.2,1.3H73C72.3,87.6,71.7,87,71.7,86.3z" style="fill: rgb(255, 202, 110);"/>
			</g><g transform="matrix(0.9999999999999999, 0, 0, 0.9999999999999999, -1.1368683772161603e-13, 0)">
				<path class="st43" d="M75.6,87.6c-0.1-0.1-0.2-0.6-0.2-1.3v-5.5h3.1v5.5c0,0.7-0.2,1.1-0.2,1.3H75.6z" style="fill: rgb(255, 202, 110);"/>
			</g><g transform="matrix(0.9999999999999999, 0, 0, 0.9999999999999999, -1.1368683772161603e-13, 0)">
				<path class="st43" d="M82,86.3c0,0.7-0.6,1.3-1.3,1.3h-1.6c0.1-0.4,0.2-0.8,0.2-1.3v-5.5H82V86.3z" style="fill: rgb(255, 202, 110);"/>
			</g><g transform="matrix(0.9999999999999999, 0, 0, 0.9999999999999999, -8.526512829121202e-14, 0)">
			<g>
				<path class="st44" d="M280.7,60.1h-0.4V62h-1h-1.9h-1v-1.9h-0.4V62v0.2v2.3c0,0.5,0.4,0.8,0.8,0.8h0.9h1h0.9&#10;&#9;&#9;&#9;&#9;&#9;c0.5,0,0.8-0.4,0.8-0.8v-2.3h0V60.1z M276.5,64.4v-2.1h1v2.1c0,0.2,0,0.3,0.1,0.5H277C276.7,64.9,276.5,64.7,276.5,64.4z&#10;&#9;&#9;&#9;&#9;&#9; M278,64.9c0-0.1-0.1-0.2-0.1-0.5v-2.1h1.1v2.1c0,0.3-0.1,0.4-0.1,0.5H278z M280.4,64.4c0,0.3-0.2,0.5-0.5,0.5h-0.6&#10;&#9;&#9;&#9;&#9;&#9;c0-0.1,0.1-0.3,0.1-0.5v-2.1h1V64.4z" style="fill: rgb(14, 54, 86);"/>
			</g>
		</g><g transform="matrix(0.9999999999999999, 0, 0, 0.9999999999999999, -1.1368683772161603e-13, 0)">
				<path class="st47" d="M280.7,60.1c2.7-2.9,6.7-8,6.7-11.8c0-5.6-4-9.4-8.9-9.4c-4.9,0-8.9,3.7-8.9,9.4c0,3.8,4.1,8.9,6.7,11.8&#10;&#9;&#9;&#9;&#9;&#9;H280.7z" style="fill: rgb(250, 171, 31);"/>
			</g><g transform="matrix(0.9999999999999999, 0, 0, 0.9999999999999999, -1.1368683772161603e-13, 0)">
				<path class="st1" d="M280.1,60.1c1.9-2.9,4.8-8,4.8-11.8c0-5.6-2.8-9.4-6.4-9.4c-3.5,0-6.3,3.7-6.3,9.4c0,3.8,2.9,8.9,4.8,11.8&#10;&#9;&#9;&#9;&#9;&#9;H280.1z" style="fill: rgb(255, 255, 255);"/>
			</g><g transform="matrix(0.9999999999999999, 0, 0, 0.9999999999999999, -1.1368683772161603e-13, 0)">
				<path class="st47" d="M279.2,60.1c0.9-2.9,2.2-8,2.2-11.8c0-5.6-1.3-9.4-2.9-9.4c-1.6,0-2.9,3.7-2.9,9.4c0,3.8,1.3,8.9,2.2,11.8&#10;&#9;&#9;&#9;&#9;&#9;H279.2z" style="fill: rgb(250, 171, 31);"/>
			</g><g transform="matrix(0.9999999999999999, 0, 0, 0.9999999999999999, -1.1368683772161603e-13, 0)">
				<path class="st41" d="M276.5,64.4v-2.1h1v2.1c0,0.2,0,0.3,0.1,0.5H277C276.7,64.9,276.5,64.7,276.5,64.4z" style="fill: rgb(85, 141, 151);"/>
			</g><g transform="matrix(0.9999999999999999, 0, 0, 0.9999999999999999, -1.1368683772161603e-13, 0)">
				<path class="st41" d="M278,64.9c0-0.1-0.1-0.2-0.1-0.5v-2.1h1.1v2.1c0,0.3-0.1,0.4-0.1,0.5H278z" style="fill: rgb(85, 141, 151);"/>
			</g><g transform="matrix(0.9999999999999999, 0, 0, 0.9999999999999999, -1.1368683772161603e-13, 0)">
				<path class="st41" d="M280.4,64.4c0,0.3-0.2,0.5-0.5,0.5h-0.6c0-0.1,0.1-0.3,0.1-0.5v-2.1h1V64.4z" style="fill: rgb(85, 141, 151);"/>
			</g><g transform="matrix(0.9999999999999999, 0, 0, 0.9999999999999999, -8.526512829121202e-14, 0)">
			<path class="st1" d="M325.8,73.5c0-7.8-6.3-14.1-14.1-14.1c-0.9,0-1.8,0.1-2.7,0.3c-1.4-3.9-5.2-6.7-9.6-6.7&#10;&#9;&#9;&#9;&#9;c-4.3,0-8,2.6-9.5,6.4c-0.8-0.4-1.7-0.6-2.7-0.6c-3.5,0-6.3,2.8-6.3,6.3c0,0.2,0,0.3,0,0.5c-4.7,0.4-8.3,4.3-8.3,9.1h53.1&#10;&#9;&#9;&#9;&#9;C325.8,74.2,325.8,73.8,325.8,73.5z" style="fill: rgb(255, 255, 255);"/>
		</g><g transform="matrix(0.9999999999999999, 0, 0, 0.9999999999999999, -8.526512829121202e-14, 0)">
			<path class="st1" d="M65.4,89c0-3.9-3.1-7-7-7c-0.5,0-0.9,0-1.4,0.1c-0.7-2-2.6-3.3-4.8-3.3c-2.1,0-4,1.3-4.7,3.2&#10;&#9;&#9;&#9;&#9;c-0.4-0.2-0.9-0.3-1.4-0.3c-1.7,0-3.2,1.4-3.2,3.2c0,0.1,0,0.2,0,0.2c-2.3,0.2-4.2,2.2-4.2,4.5h26.6C65.4,89.4,65.4,89.2,65.4,89&#10;&#9;&#9;&#9;&#9;z" style="fill: rgb(255, 255, 255);"/>
		</g><g transform="matrix(0.9999999999999999, 0, 0, 0.9999999999999999, -8.526512829121202e-14, 0)">
			<path class="st1" d="M267.5,89c0-3.9-3.2-7-7-7c-0.5,0-0.9,0-1.4,0.1c-0.7-2-2.6-3.3-4.8-3.3c-2.1,0-4,1.3-4.7,3.2&#10;&#9;&#9;&#9;&#9;c-0.4-0.2-0.9-0.3-1.4-0.3c-1.7,0-3.2,1.4-3.2,3.2c0,0.1,0,0.2,0,0.2c-2.3,0.2-4.2,2.2-4.2,4.5h26.6&#10;&#9;&#9;&#9;&#9;C267.5,89.4,267.5,89.2,267.5,89z" style="fill: rgb(255, 255, 255);"/>
		</g><g transform="matrix(0.9999999999999999, 0, 0, 0.9999999999999999, -8.526512829121202e-14, 0)" style="opacity: 0.56;">
			<path class="st1" d="M137.2,87c0-4.4-3.5-7.9-7.9-7.9c-0.5,0-1,0.1-1.5,0.1c-0.8-2.2-2.9-3.7-5.4-3.7c-2.4,0-4.5,1.5-5.3,3.6&#10;&#9;&#9;&#9;&#9;c-0.5-0.2-1-0.3-1.5-0.3c-2,0-3.5,1.6-3.5,3.5c0,0.1,0,0.2,0,0.3c-2.6,0.2-4.7,2.4-4.7,5.1h29.8C137.2,87.4,137.2,87.2,137.2,87z&#10;&#9;&#9;&#9;&#9;" style="fill: rgb(255, 255, 255);"/>
		</g><g transform="matrix(0.9999999999999999, 0, 0, 0.9999999999999999, -8.526512829121202e-14, 0)" style="opacity: 0.3;">
			<path class="st1" d="M281.2,55.7c0-9.4-7.6-16.9-16.9-16.9c-1.1,0-2.2,0.1-3.3,0.3c-1.7-4.7-6.3-8.1-11.6-8.1&#10;&#9;&#9;&#9;&#9;c-5.2,0-9.6,3.2-11.4,7.7c-1-0.5-2.1-0.7-3.3-0.7c-4.2,0-7.6,3.4-7.6,7.6c0,0.2,0,0.4,0,0.6c-5.6,0.5-10,5.2-10,10.9h64.1&#10;&#9;&#9;&#9;&#9;C281.2,56.7,281.2,56.2,281.2,55.7z" style="fill: rgb(255, 255, 255);"/>
		</g><g transform="matrix(0.9999999999999999, 0, 0, 0.9999999999999999, -8.526512829121202e-14, 0)" style="opacity: 0.2;">
			<path class="st1" d="M154.3,49.9c0-6.9-5.6-12.4-12.4-12.4c-0.8,0-1.6,0.1-2.4,0.2c-1.3-3.4-4.6-5.9-8.5-5.9&#10;&#9;&#9;&#9;&#9;c-3.8,0-7,2.3-8.4,5.6c-0.7-0.3-1.5-0.5-2.4-0.5c-3.1,0-5.6,2.5-5.6,5.6c0,0.1,0,0.3,0,0.4c-4.1,0.4-7.3,3.8-7.3,8h47&#10;&#9;&#9;&#9;&#9;C154.2,50.6,154.3,50.3,154.3,49.9z" style="fill: rgb(255, 255, 255);"/>
		</g><g transform="matrix(0.9999999999999999, 0, 0, 0.9999999999999999, -8.526512829121202e-14, 0)" style="opacity: 0.8;">
			<defs>
				<path id="SVGID_3_" d="M10.8,48.8c0-11.5,9.3-20.8,20.8-20.8c1.4,0,2.7,0.1,4,0.4c2.1-5.8,7.7-9.9,14.2-9.9&#10;&#9;&#9;&#9;&#9;&#9;c6.4,0,11.8,3.9,14.1,9.5c1.2-0.6,2.6-0.9,4-0.9c5.2,0,9.4,4.2,9.4,9.4c0,0.2,0,0.5,0,0.7c6.9,0.6,12.3,6.4,12.3,13.4H10.9&#10;&#9;&#9;&#9;&#9;&#9;C10.9,49.9,10.8,49.3,10.8,48.8z"/>
			</defs>
			<clipPath id="SVGID_4_">
				<use style="overflow:visible;" xlink:href="#SVGID_3_"/>
			</clipPath>
			<g class="st56" style="clip-path: url('#SVGID_4_');">
				<path class="st1" d="M10.8,18.4v32V18.4z" style="fill: rgb(255, 255, 255);"/>
			</g>
			<g class="st56" style="clip-path: url('#SVGID_4_');">
				<path d="M 10.8 18.4 H 89.700002 V 50.4 H 10.8 V 18.4 Z" class="st1" style="fill: rgb(255, 255, 255);"/>
			</g>
			<g class="st56" style="clip-path: url('#SVGID_4_');">
				<path class="st1" d="M89.7,50.5v-32V50.5z" style="fill: rgb(255, 255, 255);"/>
			</g>
		</g><g transform="matrix(0.9999999999999999, 0, 0, 0.9999999999999999, -8.526512829121202e-14, 0)" style="opacity: 0.8;">
			<defs>
				<path id="SVGID_5_" d="M146.5,34.6c0-8.1-6.6-14.8-14.8-14.8c-1,0-1.9,0.1-2.9,0.3c-1.5-4.1-5.5-7-10.1-7c-4.5,0-8.4,2.8-10,6.7&#10;&#9;&#9;&#9;&#9;&#9;c-0.9-0.4-1.8-0.6-2.9-0.6c-3.7,0-6.6,3-6.6,6.6c0,0.2,0,0.3,0,0.5c-4.9,0.4-8.7,4.5-8.7,9.5h55.8&#10;&#9;&#9;&#9;&#9;&#9;C146.4,35.4,146.5,35,146.5,34.6z"/>
			</defs>
			<clipPath id="SVGID_6_">
				<use style="overflow:visible;" xlink:href="#SVGID_5_"/>
			</clipPath>
			<g class="st57" style="clip-path: url('#SVGID_6_');">
				<path class="st1" d="M90.6,13.1v22.7V13.1z" style="fill: rgb(255, 255, 255);"/>
			</g>
			<g class="st57" style="clip-path: url('#SVGID_6_');">
				<path d="M 90.599998 13.1 H 146.399998 V 35.800001 H 90.599998 V 13.1 Z" class="st1" style="fill: rgb(255, 255, 255);"/>
			</g>
			<g class="st57" style="clip-path: url('#SVGID_6_');">
				<path class="st1" d="M146.5,35.8V13.1V35.8z" style="fill: rgb(255, 255, 255);"/>
			</g>
		</g><g transform="matrix(0.9999999999999999, 0, 0, 0.9999999999999999, -8.526512829121202e-14, 0)">
			<path class="st1" d="M49.4,70.6c0-5.6-4.6-10.2-10.2-10.2c-0.7,0-1.3,0.1-2,0.2c-1-2.8-3.8-4.8-7-4.8c-3.1,0-5.8,1.9-6.9,4.6&#10;&#9;&#9;&#9;&#9;c-0.6-0.3-1.3-0.4-2-0.4c-2.5,0-4.6,2-4.6,4.6c0,0.1,0,0.2,0,0.3c-3.4,0.3-6,3.1-6,6.6h38.5C49.3,71.1,49.4,70.8,49.4,70.6z" style="fill: rgb(255, 255, 255);"/>
		</g><g transform="matrix(0.9999999999999999, 0, 0, 0.9999999999999999, -8.526512829121202e-14, 0)">
			<defs>
				<path id="SVGID_9_" d="M219.2,74.6c0-3.1-2.5-5.5-5.5-5.5c-0.4,0-0.7,0-1.1,0.1c-0.6-1.5-2-2.6-3.8-2.6c-1.7,0-3.1,1-3.7,2.5&#10;&#9;&#9;&#9;&#9;&#9;c-0.3-0.2-0.7-0.2-1.1-0.2c-1.4,0-2.5,1.1-2.5,2.5c0,0.1,0,0.1,0,0.2c-1.8,0.2-3.3,1.7-3.3,3.6h20.9&#10;&#9;&#9;&#9;&#9;&#9;C219.2,74.9,219.2,74.8,219.2,74.6z"/>
			</defs>
			<clipPath id="SVGID_10_">
				<use style="overflow:visible;" xlink:href="#SVGID_9_"/>
			</clipPath>
			<g class="st59" style="clip-path: url('#SVGID_10_');">
				<path class="st1" d="M198.2,66.6v8.5V66.6z" style="fill: rgb(255, 255, 255);"/>
			</g>
			<g class="st59" style="clip-path: url('#SVGID_10_');">
				<path d="M 198.199997 66.599998 H 219.099997 V 75.099998 H 198.199997 V 66.599998 Z" class="st1" style="fill: rgb(255, 255, 255);"/>
			</g>
			<g class="st59" style="clip-path: url('#SVGID_10_');">
				<path class="st1" d="M219.2,75.1v-8.5V75.1z" style="fill: rgb(255, 255, 255);"/>
			</g>
		</g><g transform="matrix(0.9999999999999999, 0, 0, 0.9999999999999999, -8.526512829121202e-14, 0)">
			<defs>
				<path id="SVGID_11_" d="M309.5,28.2c0-3.1-2.5-5.5-5.5-5.5c-0.4,0-0.7,0-1.1,0.1c-0.6-1.5-2-2.6-3.8-2.6c-1.7,0-3.1,1-3.7,2.5&#10;&#9;&#9;&#9;&#9;&#9;c-0.3-0.2-0.7-0.2-1.1-0.2c-1.4,0-2.5,1.1-2.5,2.5c0,0.1,0,0.1,0,0.2c-1.8,0.2-3.3,1.7-3.3,3.6h20.9&#10;&#9;&#9;&#9;&#9;&#9;C309.5,28.5,309.5,28.4,309.5,28.2z"/>
			</defs>
			<clipPath id="SVGID_12_">
				<use style="overflow:visible;" xlink:href="#SVGID_11_"/>
			</clipPath>
			<g class="st60" style="clip-path: url('#SVGID_12_');">
				<path class="st1" d="M288.6,20.2v8.5V20.2z" style="fill: rgb(255, 255, 255);"/>
			</g>
			<g class="st60" style="clip-path: url('#SVGID_12_');">
				<path d="M 288.600006 20.200001 H 309.500006 V 28.700001 H 288.600006 V 20.200001 Z" class="st1" style="fill: rgb(255, 255, 255);"/>
			</g>
			<g class="st60" style="clip-path: url('#SVGID_12_');">
				<path class="st1" d="M309.5,28.7v-8.5V28.7z" style="fill: rgb(255, 255, 255);"/>
			</g>
		</g><g transform="matrix(1, 0, 0, 1, -113.73549330332813, 72.63108695159897)">
			<defs>
				<path id="SVGID_13_" d="M202.5,34.8c0-4.9-4-8.9-8.9-8.9c-0.6,0-1.2,0.1-1.7,0.2c-0.9-2.5-3.3-4.3-6.1-4.3c-2.7,0-5.1,1.7-6,4.1&#10;&#9;&#9;&#9;&#9;&#9;c-0.5-0.3-1.1-0.4-1.7-0.4c-2.2,0-4,1.8-4,4c0,0.1,0,0.2,0,0.3c-3,0.3-5.3,2.7-5.3,5.8h33.8C202.5,35.3,202.5,35.1,202.5,34.8z"/>
			</defs>
			<clipPath id="SVGID_14_">
				<use style="overflow:visible;" xlink:href="#SVGID_13_"/>
			</clipPath>
			<g class="st61" style="clip-path: url('#SVGID_14_');">
				<path class="st1" d="M168.6,21.8v13.7V21.8z" style="fill: rgb(255, 255, 255);"/>
			</g>
			<g class="st61" style="clip-path: url('#SVGID_14_');">
				<path d="M 168.600006 21.799999 H 202.400005 V 35.499999 H 168.600006 V 21.799999 Z" class="st1" style="fill: rgb(255, 255, 255);"/>
			</g>
			<g class="st61" style="clip-path: url('#SVGID_14_');">
				<path class="st1" d="M202.5,35.5V21.8V35.5z" style="fill: rgb(255, 255, 255);"/>
			</g>
		</g><g transform="matrix(0.9999999999999999, 0, 0, 0.9999999999999999, -8.526512829121202e-14, 0)">
			<path d="M 50.299999 126.800003 H 53.999999 V 130.200003 H 50.299999 V 126.800003 Z" class="st62" style="fill: rgb(109, 190, 196);"/>
		</g><g transform="matrix(0.9999999999999999, 0, 0, 0.9999999999999999, -8.526512829121202e-14, 0)">
			<path d="M 72.199997 126.800003 H 75.899997 V 130.200003 H 72.199997 V 126.800003 Z" class="st62" style="fill: rgb(109, 190, 196);"/>
		</g>
<g transform="matrix(0.9999999999999999, 0, 0, 0.9999999999999999, -2.842170943040401e-14, 0)">
		<g>
			<path class="st62" d="M336,185.3h-1.3h-21.3h-1.3h-21.3h-1.3h-21.3h-1.3h-21.3h-1.3h-21.3h-1.3h-21.3h-1.3h-21.3h-1.3h-21.3h-1.3&#10;&#9;&#9;&#9;&#9;h-21.3h-1.3h-21.3h-1.3h-19h0h-1.2h-0.1H68h-1.3H45.5h-1.3H23h-1.3H1.3H0h0v15.8h1.3v-7.9h20.5v7.9H23v-7.9h21.3v7.9h1.3v-7.9&#10;&#9;&#9;&#9;&#9;h21.3v7.9H68v-7.9h21.3v7.9h1.3v-7.9h19v7.9h1.3v-7.9h21.3v7.9h1.3v-7.9h21.3v7.9h1.3v-7.9h21.3v7.9h1.3v-7.9h21.3v7.9h1.3v-7.9&#10;&#9;&#9;&#9;&#9;h21.3v7.9h1.3v-7.9h21.3v7.9h1.3v-7.9h21.3v7.9h1.3v-7.9h21.3v7.9h1.3v-7.9h21.3v7.9h1.3v-7.9h21.3v7.9h1.3V185.3L336,185.3z&#10;&#9;&#9;&#9;&#9; M21.7,192H1.3v-5.4h20.5V192z M44.2,192H23v-5.4h21.3V192z M66.8,192H45.5v-5.4h21.3V192z M89.3,192H68v-5.4h21.3V192z&#10;&#9;&#9;&#9;&#9; M90.5,192v-5.4h19v5.4H90.5z M110.8,192v-5.4h21.3v5.4H110.8z M133.3,192v-5.4h21.3v5.4H133.3z M155.8,192v-5.4h21.3v5.4H155.8z&#10;&#9;&#9;&#9;&#9; M178.4,192v-5.4h21.3v5.4H178.4z M200.9,192v-5.4h21.3v5.4H200.9z M223.4,192v-5.4h21.3v5.4H223.4z M245.9,192v-5.4h21.3v5.4&#10;&#9;&#9;&#9;&#9;H245.9z M268.4,192v-5.4h21.3v5.4H268.4z M290.9,192v-5.4h21.3v5.4H290.9z M313.5,192v-5.4h21.3v5.4H313.5z" style="fill: rgb(109, 190, 196);"/>
		</g>
	</g><g transform="matrix(0.9999999999999999, 0, 0, 0.9999999999999999, -8.526512829121202e-14, 0)">
			<path d="M 0 201.100006 H 336 V 206.600006 H 0 V 201.100006 Z" class="st40" style="fill: rgb(181, 193, 201);"/>
		</g><g transform="matrix(0.9999999999999999, 0, 0, 0.9999999999999999, -8.526512829121202e-14, 0)">
			<path d="M 0 235.199997 L 0 206.600006 L 336 206.600006 L 336 235.199997" class="st44" style="fill: rgb(14, 54, 86);"/>
		</g><g class="st51" transform="matrix(0.9999999999999999, 0, 0, 0.9999999999999999, -8.526512829121202e-14, 0)" style="opacity: 0.8;">
			<g>
				<g>
					<g>
						<path class="st1" d="M25.7,218.6c-2,0-3.9-0.8-5-2.3c-0.1-0.1-0.1-0.3,0-0.3c0.1-0.1,0.3-0.1,0.3,0c1,1.3,2.8,2.1,4.7,2.1&#10;&#9;&#9;&#9;&#9;&#9;&#9;&#9;c1.9,0,3.6-0.8,4.7-2.1c0.1-0.1,0.2-0.1,0.3,0c0.1,0.1,0.1,0.2,0,0.3C29.6,217.8,27.8,218.6,25.7,218.6z" style="fill: rgb(255, 255, 255);"/>
					</g>
				</g>
			</g>
			<g>
				<g>
					<g>
						<path class="st1" d="M35.4,218.6c-2,0-3.9-0.8-5-2.3c-0.1-0.1-0.1-0.3,0-0.3c0.1-0.1,0.3-0.1,0.3,0c1,1.3,2.8,2.1,4.7,2.1&#10;&#9;&#9;&#9;&#9;&#9;&#9;&#9;c1.9,0,3.6-0.8,4.7-2.1c0.1-0.1,0.2-0.1,0.3,0c0.1,0.1,0.1,0.2,0,0.3C39.3,217.8,37.4,218.6,35.4,218.6z" style="fill: rgb(255, 255, 255);"/>
					</g>
				</g>
			</g>
			<g>
				<g>
					<g>
						<path class="st1" d="M45.1,218.6c-2,0-3.9-0.8-5-2.3c-0.1-0.1-0.1-0.3,0-0.3c0.1-0.1,0.3-0.1,0.3,0c1,1.3,2.8,2.1,4.7,2.1&#10;&#9;&#9;&#9;&#9;&#9;&#9;&#9;c1.9,0,3.6-0.8,4.7-2.1c0.1-0.1,0.2-0.1,0.3,0c0.1,0.1,0.1,0.2,0,0.3C49,217.8,47.1,218.6,45.1,218.6z" style="fill: rgb(255, 255, 255);"/>
					</g>
				</g>
			</g>
			<g>
				<g>
					<g>
						<path class="st1" d="M54.8,218.6c-2,0-3.9-0.8-5-2.3c-0.1-0.1-0.1-0.3,0-0.3c0.1-0.1,0.3-0.1,0.3,0c1,1.3,2.8,2.1,4.7,2.1&#10;&#9;&#9;&#9;&#9;&#9;&#9;&#9;c1.9,0,3.6-0.8,4.7-2.1c0.1-0.1,0.2-0.1,0.3,0c0.1,0.1,0.1,0.2,0,0.3C58.7,217.8,56.8,218.6,54.8,218.6z" style="fill: rgb(255, 255, 255);"/>
					</g>
				</g>
			</g>
			<g>
				<g>
					<g>
						<path class="st1" d="M64.5,218.6c-2,0-3.9-0.8-5-2.3c-0.1-0.1-0.1-0.3,0-0.3c0.1-0.1,0.3-0.1,0.3,0c1,1.3,2.8,2.1,4.7,2.1&#10;&#9;&#9;&#9;&#9;&#9;&#9;&#9;c1.9,0,3.6-0.8,4.7-2.1c0.1-0.1,0.2-0.1,0.3,0c0.1,0.1,0.1,0.2,0,0.3C68.4,217.8,66.5,218.6,64.5,218.6z" style="fill: rgb(255, 255, 255);"/>
					</g>
				</g>
			</g>
			<g>
				<g>
					<g>
						<path class="st1" d="M74.2,218.6c-2,0-3.9-0.8-5-2.3c-0.1-0.1-0.1-0.3,0-0.3c0.1-0.1,0.3-0.1,0.3,0c1,1.3,2.8,2.1,4.7,2.1&#10;&#9;&#9;&#9;&#9;&#9;&#9;&#9;s3.6-0.8,4.7-2.1c0.1-0.1,0.2-0.1,0.3,0c0.1,0.1,0.1,0.2,0,0.3C78.1,217.8,76.2,218.6,74.2,218.6z" style="fill: rgb(255, 255, 255);"/>
					</g>
				</g>
			</g>
			<g>
				<g>
					<g>
						<path class="st1" d="M83.8,218.6c-2,0-3.9-0.8-5-2.3c-0.1-0.1-0.1-0.3,0-0.3c0.1-0.1,0.3-0.1,0.3,0c1,1.3,2.8,2.1,4.7,2.1&#10;&#9;&#9;&#9;&#9;&#9;&#9;&#9;s3.6-0.8,4.7-2.1c0.1-0.1,0.2-0.1,0.3,0c0.1,0.1,0.1,0.2,0,0.3C87.7,217.8,85.9,218.6,83.8,218.6z" style="fill: rgb(255, 255, 255);"/>
					</g>
				</g>
			</g>
			<g>
				<g>
					<g>
						<path class="st1" d="M93.5,218.6c-2,0-3.9-0.8-5-2.3c-0.1-0.1-0.1-0.3,0-0.3c0.1-0.1,0.3-0.1,0.3,0c1,1.3,2.8,2.1,4.7,2.1&#10;&#9;&#9;&#9;&#9;&#9;&#9;&#9;c1.9,0,3.6-0.8,4.7-2.1c0.1-0.1,0.2-0.1,0.3,0c0.1,0.1,0.1,0.2,0,0.3C97.4,217.8,95.5,218.6,93.5,218.6z" style="fill: rgb(255, 255, 255);"/>
					</g>
				</g>
			</g>
			<g>
				<g>
					<g>
						<path class="st1" d="M103.2,218.6c-2,0-3.9-0.8-5-2.3c-0.1-0.1-0.1-0.3,0-0.3c0.1-0.1,0.3-0.1,0.3,0c1,1.3,2.8,2.1,4.7,2.1&#10;&#9;&#9;&#9;&#9;&#9;&#9;&#9;c1.9,0,3.6-0.8,4.7-2.1c0.1-0.1,0.2-0.1,0.3,0c0.1,0.1,0.1,0.2,0,0.3C107.1,217.8,105.2,218.6,103.2,218.6z" style="fill: rgb(255, 255, 255);"/>
					</g>
				</g>
			</g>
		</g><g transform="matrix(0.9999999999999999, 0, 0, 0.9999999999999999, -1.1368683772161603e-13, 0)" style="opacity: 0.5;">
				<g>
					<g>
						<path class="st1" d="M234.8,226.3c-2,0-3.9-0.8-5-2.3c-0.1-0.1-0.1-0.3,0-0.3c0.1-0.1,0.3-0.1,0.3,0c1,1.3,2.8,2.1,4.7,2.1&#10;&#9;&#9;&#9;&#9;&#9;&#9;&#9;c1.9,0,3.6-0.8,4.7-2.1c0.1-0.1,0.2-0.1,0.3,0c0.1,0.1,0.1,0.2,0,0.3C238.7,225.4,236.9,226.3,234.8,226.3z" style="fill: rgb(255, 255, 255);"/>
					</g>
				</g>
			</g><g transform="matrix(0.9999999999999999, 0, 0, 0.9999999999999999, -1.4210854715202004e-13, 0)" style="opacity: 0.5;">
					<g>
						<path class="st1" d="M244.5,226.3c-2,0-3.9-0.8-5-2.3c-0.1-0.1-0.1-0.3,0-0.3c0.1-0.1,0.3-0.1,0.3,0c1,1.3,2.8,2.1,4.7,2.1&#10;&#9;&#9;&#9;&#9;&#9;&#9;&#9;c1.9,0,3.6-0.8,4.7-2.1c0.1-0.1,0.2-0.1,0.3,0c0.1,0.1,0.1,0.2,0,0.3C248.4,225.4,246.5,226.3,244.5,226.3z" style="fill: rgb(255, 255, 255);"/>
					</g>
				</g><g transform="matrix(0.9999999999999999, 0, 0, 0.9999999999999999, -1.4210854715202004e-13, 0)" style="opacity: 0.5;">
					<g>
						<path class="st1" d="M254.2,226.3c-2,0-3.9-0.8-5-2.3c-0.1-0.1-0.1-0.3,0-0.3c0.1-0.1,0.3-0.1,0.3,0c1,1.3,2.8,2.1,4.7,2.1&#10;&#9;&#9;&#9;&#9;&#9;&#9;&#9;c1.9,0,3.6-0.8,4.7-2.1c0.1-0.1,0.2-0.1,0.3,0c0.1,0.1,0.1,0.2,0,0.3C258.1,225.4,256.2,226.3,254.2,226.3z" style="fill: rgb(255, 255, 255);"/>
					</g>
				</g><g transform="matrix(0.9999999999999999, 0, 0, 0.9999999999999999, -1.4210854715202004e-13, 0)" style="opacity: 0.5;">
					<g>
						<path class="st1" d="M263.9,226.3c-2,0-3.9-0.8-5-2.3c-0.1-0.1-0.1-0.3,0-0.3c0.1-0.1,0.3-0.1,0.3,0c1,1.3,2.8,2.1,4.7,2.1&#10;&#9;&#9;&#9;&#9;&#9;&#9;&#9;c1.9,0,3.6-0.8,4.7-2.1c0.1-0.1,0.2-0.1,0.3,0c0.1,0.1,0.1,0.2,0,0.3C267.8,225.4,265.9,226.3,263.9,226.3z" style="fill: rgb(255, 255, 255);"/>
					</g>
				</g><g transform="matrix(0.9999999999999999, 0, 0, 0.9999999999999999, -1.4210854715202004e-13, 0)" style="opacity: 0.5;">
					<g>
						<path class="st1" d="M273.6,226.3c-2,0-3.9-0.8-5-2.3c-0.1-0.1-0.1-0.3,0-0.3c0.1-0.1,0.3-0.1,0.3,0c1,1.3,2.8,2.1,4.7,2.1&#10;&#9;&#9;&#9;&#9;&#9;&#9;&#9;c1.9,0,3.6-0.8,4.7-2.1c0.1-0.1,0.2-0.1,0.3,0c0.1,0.1,0.1,0.2,0,0.3C277.5,225.4,275.6,226.3,273.6,226.3z" style="fill: rgb(255, 255, 255);"/>
					</g>
				</g><g transform="matrix(0.9999999999999999, 0, 0, 0.9999999999999999, -1.4210854715202004e-13, 0)" style="opacity: 0.5;">
					<g>
						<path class="st64" d="M278.4,223.9" style="fill: none; stroke: rgb(255, 255, 255); stroke-width: 0.48; stroke-linecap: round; stroke-linejoin: round; stroke-miterlimit: 10;"/>
					</g>
				</g><g transform="matrix(0.9999999999999999, 0, 0, 0.9999999999999999, -1.1368683772161603e-13, 0)">
				<g>
					<g>
						<path class="st1" d="M204.3,219.6c-1,0-1.9-0.4-2.4-1.1c-0.1-0.1-0.1-0.3,0-0.3c0.1-0.1,0.3-0.1,0.3,0c0.5,0.6,1.2,0.9,2,0.9&#10;&#9;&#9;&#9;&#9;&#9;&#9;&#9;c0.8,0,1.6-0.3,2-0.9c0.1-0.1,0.2-0.1,0.3,0c0.1,0.1,0.1,0.2,0,0.3C206.1,219.2,205.2,219.6,204.3,219.6z" style="fill: rgb(255, 255, 255);"/>
					</g>
				</g>
			</g><g transform="matrix(0.9999999999999999, 0, 0, 0.9999999999999999, -1.4210854715202004e-13, 0)">
					<g>
						<path class="st1" d="M208.7,219.6c-1,0-1.9-0.4-2.4-1.1c-0.1-0.1-0.1-0.3,0-0.3c0.1-0.1,0.3-0.1,0.3,0c0.5,0.6,1.2,0.9,2,0.9&#10;&#9;&#9;&#9;&#9;&#9;&#9;&#9;c0.8,0,1.6-0.3,2-0.9c0.1-0.1,0.2-0.1,0.3,0c0.1,0.1,0.1,0.2,0,0.3C210.6,219.2,209.7,219.6,208.7,219.6z" style="fill: rgb(255, 255, 255);"/>
					</g>
				</g><g transform="matrix(0.9999999999999999, 0, 0, 0.9999999999999999, -1.1368683772161603e-13, 0)">
				<g>
					<g>
						<path class="st1" d="M135.2,225.7c-1,0-1.9-0.4-2.4-1.1c-0.1-0.1-0.1-0.3,0-0.3c0.1-0.1,0.3-0.1,0.3,0c0.5,0.6,1.2,0.9,2,0.9&#10;&#9;&#9;&#9;&#9;&#9;&#9;&#9;c0.8,0,1.6-0.3,2-0.9c0.1-0.1,0.2-0.1,0.3,0c0.1,0.1,0.1,0.2,0,0.3C137.1,225.3,136.2,225.7,135.2,225.7z" style="fill: rgb(255, 255, 255);"/>
					</g>
				</g>
			</g><g transform="matrix(0.9999999999999999, 0, 0, 0.9999999999999999, -1.4210854715202004e-13, 0)">
					<g>
						<path class="st1" d="M139.6,225.7c-1,0-1.9-0.4-2.4-1.1c-0.1-0.1-0.1-0.3,0-0.3c0.1-0.1,0.3-0.1,0.3,0c0.5,0.6,1.2,0.9,2,0.9&#10;&#9;&#9;&#9;&#9;&#9;&#9;&#9;c0.8,0,1.6-0.3,2-0.9c0.1-0.1,0.2-0.1,0.3,0c0.1,0.1,0.1,0.2,0,0.3C141.5,225.3,140.6,225.7,139.6,225.7z" style="fill: rgb(255, 255, 255);"/>
					</g>
				</g><g transform="matrix(0.9999999999999999, 0, 0, 0.9999999999999999, -1.1368683772161603e-13, 0)" style="opacity: 0.5;">
				<g>
					<g>
						<path class="st1" d="M302.6,219.6c-1,0-1.9-0.4-2.4-1.1c-0.1-0.1-0.1-0.3,0-0.3c0.1-0.1,0.3-0.1,0.3,0c0.5,0.6,1.2,0.9,2,0.9&#10;&#9;&#9;&#9;&#9;&#9;&#9;&#9;c0.8,0,1.6-0.3,2-0.9c0.1-0.1,0.2-0.1,0.3,0c0.1,0.1,0.1,0.2,0,0.3C304.5,219.2,303.6,219.6,302.6,219.6z" style="fill: rgb(255, 255, 255);"/>
					</g>
				</g>
			</g><g transform="matrix(0.9999999999999999, 0, 0, 0.9999999999999999, -1.4210854715202004e-13, 0)" style="opacity: 0.5;">
					<g>
						<path class="st1" d="M307.1,219.6c-1,0-1.9-0.4-2.4-1.1c-0.1-0.1-0.1-0.3,0-0.3c0.1-0.1,0.3-0.1,0.3,0c0.5,0.6,1.2,0.9,2,0.9&#10;&#9;&#9;&#9;&#9;&#9;&#9;&#9;s1.6-0.3,2-0.9c0.1-0.1,0.2-0.1,0.3,0c0.1,0.1,0.1,0.2,0,0.3C308.9,219.2,308,219.6,307.1,219.6z" style="fill: rgb(255, 255, 255);"/>
					</g>
				</g>
<g transform="matrix(1, 0, 0, 1, 140.47331102726824, 43.09976588336642)" style="opacity: 0.8;">
			<defs>
				<path id="SVGID_7_" d="M183.6,55.8c0-5.5-4.4-9.9-9.9-9.9c-0.7,0-1.3,0.1-1.9,0.2c-1-2.7-3.7-4.7-6.8-4.7c-3,0-5.6,1.9-6.7,4.5&#10;&#9;&#9;&#9;&#9;&#9;c-0.6-0.3-1.2-0.4-1.9-0.4c-2.5,0-4.4,2-4.4,4.4c0,0.1,0,0.2,0,0.3c-3.3,0.3-5.9,3-5.9,6.4h37.5&#10;&#9;&#9;&#9;&#9;&#9;C183.6,56.3,183.6,56.1,183.6,55.8z"/>
			</defs>
			<clipPath id="SVGID_8_">
				<use style="overflow:visible;" xlink:href="#SVGID_7_"/>
			</clipPath>
			<g class="st58" style="clip-path: url('#SVGID_8_');">
				<path class="st1" d="M146.1,41.4v15.2V41.4z" style="fill: rgb(255, 255, 255);"/>
			</g>
			<g class="st58" style="clip-path: url('#SVGID_8_');">
				<path d="M 146.100006 41.400002 H 183.600006 V 56.600001 H 146.100006 V 41.400002 Z" class="st1" style="fill: rgb(255, 255, 255);"/>
			</g>
			<g class="st58" style="clip-path: url('#SVGID_8_');">
				<path class="st1" d="M183.6,56.6V41.4V56.6z" style="fill: rgb(255, 255, 255);"/>
			</g>
		</g></svg>